# xmcd
#
# Track frame offsets: 
#        150
#        11220
#        29800
#        42682
#        54612
#        65387
#        78495
#        93755
#        103525
#        118272
#        128895
#        148402
#        159557
#        172025
#
# Disc length: 2488 seconds
#
# Revision: 1
# Processed by: cddbd v1.5.2PL0 Copyright (c) Steve Scherf et al.
# Submitted via: ExactAudioCopyFreeDBPlugin 1.0
#
DISCID=d009b60e
DTITLE=Aretha Franklin - I Never Loved a Man the Way I Love You
DYEAR=1967
DGENRE=Soul
TTITLE0=Respect
TTITLE1=Drown in My Own Tears
TTITLE2=I Never Loved a Man (The Way I Love You)
TTITLE3=Soul Serenade
TTITLE4=Don't Let Me Lose This Dream
TTITLE5=Baby, Baby, Baby
TTITLE6=Dr. Feelgood (Love is a Serious Business)
TTITLE7=Good Times
TTITLE8=Do Right Woman - Do Right Man
TTITLE9=Save Me
TTITLE10=A Change is Gonna Come
TTITLE11=Respect (stereo version)
TTITLE12=I Never Loved a Man (The Way I Love You) (stereo version)
TTITLE13=Do Right Woman - Do Right Man (stereo version)
EXTD=
EXTT0=
EXTT1=
EXTT2=
EXTT3=
EXTT4=
EXTT5=
EXTT6=
EXTT7=
EXTT8=
EXTT9=
EXTT10=
EXTT11=
EXTT12=
EXTT13=
PLAYORDER=
